<svg width="18" height="18" viewBox="0 0 18 18" fill="none" xmlns="http://www.w3.org/2000/svg">
<path d="M7.80382 3.61552C7.95752 2.99294 8.84257 2.99294 8.99627 3.61552C9.65234 6.273 11.7273 8.34791 14.3848 9.00393C15.0074 9.15762 15.0074 10.0427 14.3848 10.1964C11.7273 10.8524 9.65234 12.9273 8.99627 15.5848C8.84257 16.2074 7.95752 16.2074 7.80382 15.5848C7.14775 12.9273 5.07279 10.8524 2.4153 10.1964C1.7927 10.0427 1.7927 9.15762 2.4153 9.00393C5.07279 8.34791 7.14775 6.273 7.80382 3.61552Z" fill="#007C8A"/>
<path d="M14.3586 0.977531C14.4209 0.725536 14.7791 0.725536 14.8413 0.977531C15.1069 2.05318 15.9467 2.89302 17.0224 3.15856C17.2744 3.22076 17.2744 3.57901 17.0224 3.64122C15.9467 3.90676 15.1069 4.7466 14.8413 5.82225C14.7791 6.07424 14.4209 6.07424 14.3586 5.82225C14.0931 4.7466 13.2532 3.90676 12.1776 3.64122C11.9256 3.57901 11.9256 3.22076 12.1776 3.15856C13.2532 2.89302 14.0931 2.05318 14.3586 0.977531Z" fill="#007C8A"/>
</svg>
