<svg width="9" height="9" viewBox="0 0 9 9" fill="none" xmlns="http://www.w3.org/2000/svg">
<path d="M3.8 6.6L7.325 3.075L6.625 2.375L3.8 5.2L2.375 3.775L1.675 4.475L3.8 6.6ZM1 9C0.725 9 0.489583 8.90208 0.29375 8.70625C0.0979167 8.51042 0 8.275 0 8V1C0 0.725 0.0979167 0.489583 0.29375 0.29375C0.489583 0.0979167 0.725 0 1 0H8C8.275 0 8.51042 0.0979167 8.70625 0.29375C8.90208 0.489583 9 0.725 9 1V8C9 8.275 8.90208 8.51042 8.70625 8.70625C8.51042 8.90208 8.275 9 8 9H1ZM1 8H8V1H1V8Z" fill="#146D92"/>
</svg>
