<svg width="10" height="9" viewBox="0 0 10 9" fill="none" xmlns="http://www.w3.org/2000/svg">
<path d="M0.5 9V6.875L7.0875 0.3C7.1875 0.2 7.3 0.125 7.425 0.075C7.55 0.025 7.675 0 7.8 0C7.93333 0 8.06042 0.025 8.18125 0.075C8.30208 0.125 8.40833 0.2 8.5 0.3L9.2 1C9.3 1.09167 9.375 1.19792 9.425 1.31875C9.475 1.43958 9.5 1.56667 9.5 1.7C9.5 1.825 9.475 1.95 9.425 2.075C9.375 2.2 9.3 2.3125 9.2 2.4125L2.625 9H0.5ZM1.5 8H2.2L7.1125 3.1L6.7625 2.7375L6.4 2.3875L1.5 7.3V8ZM6.7625 2.7375L6.4 2.3875L7.1125 3.1L6.7625 2.7375ZM5.5 9C6.11667 9 6.6875 8.84583 7.2125 8.5375C7.7375 8.22917 8 7.8 8 7.25C8 6.95 7.92083 6.69167 7.7625 6.475C7.60417 6.25833 7.39167 6.07083 7.125 5.9125L6.3875 6.65C6.57917 6.73333 6.72917 6.825 6.8375 6.925C6.94583 7.025 7 7.13333 7 7.25C7 7.44167 6.84792 7.61458 6.54375 7.76875C6.23958 7.92292 5.89167 8 5.5 8C5.35833 8 5.23958 8.04792 5.14375 8.14375C5.04792 8.23958 5 8.35833 5 8.5C5 8.64167 5.04792 8.76042 5.14375 8.85625C5.23958 8.95208 5.35833 9 5.5 9ZM0.7875 5.175L1.5375 4.425C1.37083 4.35833 1.23958 4.28958 1.14375 4.21875C1.04792 4.14792 1 4.075 1 4C1 3.9 1.075 3.8 1.225 3.7C1.375 3.6 1.69167 3.44583 2.175 3.2375C2.90833 2.92083 3.39583 2.63333 3.6375 2.375C3.87917 2.11667 4 1.825 4 1.5C4 1.04167 3.81667 0.677083 3.45 0.40625C3.08333 0.135417 2.6 0 2 0C1.625 0 1.28958 0.0666667 0.99375 0.2C0.697917 0.333333 0.470833 0.495833 0.3125 0.6875C0.220833 0.795833 0.183333 0.916667 0.2 1.05C0.216667 1.18333 0.279167 1.29167 0.3875 1.375C0.495833 1.46667 0.616667 1.50417 0.75 1.4875C0.883333 1.47083 0.995833 1.41667 1.0875 1.325C1.20417 1.20833 1.33333 1.125 1.475 1.075C1.61667 1.025 1.79167 1 2 1C2.34167 1 2.59375 1.05 2.75625 1.15C2.91875 1.25 3 1.36667 3 1.5C3 1.61667 2.92708 1.72292 2.78125 1.81875C2.63542 1.91458 2.3 2.08333 1.775 2.325C1.10833 2.61667 0.645833 2.88125 0.3875 3.11875C0.129167 3.35625 0 3.65 0 4C0 4.26667 0.0708333 4.49375 0.2125 4.68125C0.354167 4.86875 0.545833 5.03333 0.7875 5.175Z" fill="#146D92"/>
</svg>
